<svg xmlns="http://www.w3.org/2000/svg" viewBox="0 0 64 64">
  <defs>
    <linearGradient id="g" x1="0%" y1="0%" x2="100%" y2="100%">
      <stop offset="0%" stop-color="#137FEC"/>
      <stop offset="100%" stop-color="#0C6951"/>
    </linearGradient>
  </defs>
  <rect width="64" height="64" rx="14" fill="url(#g)"/>
  <path d="M32 10C22 10 14 18 14 28C14 40 32 56 32 56C32 56 50 40 50 28C50 18 42 10 32 10Z" fill="white" opacity="0.15"/>
  <path d="M32 10C22 10 14 18 14 28C14 40 32 56 32 56C32 56 50 40 50 28C50 18 42 10 32 10Z" fill="none" stroke="white" stroke-width="2.5" opacity="0.9"/>
  <polyline points="22,34 27,24 33,29 40,16" fill="none" stroke="#D3FF62" stroke-width="3.5" stroke-linecap="round" stroke-linejoin="round"/>
  <polyline points="36,14 40,16 38,22" fill="none" stroke="#D3FF62" stroke-width="3.5" stroke-linecap="round" stroke-linejoin="round"/>
</svg>